<svg width="70" height="70" viewBox="0 0 70 70" fill="none" xmlns="http://www.w3.org/2000/svg">
<path d="M33.2397 6.17647C33.2397 9.01765 30.9338 11.3235 28.0926 11.3235C25.2515 11.3235 22.9456 9.01765 22.9456 6.17647C22.9456 3.33529 25.2515 1.02941 28.0926 1.02941C30.9338 1.02941 33.2397 3.33529 33.2397 6.17647Z" fill="white"/>
<path d="M20.4956 9.05882C20.4956 11.3338 18.6529 13.1765 16.3779 13.1765C14.1029 13.1765 12.2603 11.3338 12.2603 9.05882C12.2603 6.78382 14.1029 4.94118 16.3779 4.94118C18.6529 4.94118 20.4956 6.78382 20.4956 9.05882Z" fill="white"/>
<path d="M44.1721 9.05882C44.1721 11.3338 42.3294 13.1765 40.0544 13.1765C37.7794 13.1765 35.9368 11.3338 35.9368 9.05882C35.9368 6.78382 37.7794 4.94118 40.0544 4.94118C42.3294 4.94118 44.1721 6.78382 44.1721 9.05882Z" fill="white"/>
<path d="M10.7162 15.3846C10.7162 16.9493 9.45 18.2154 7.88529 18.2154C6.32059 18.2154 5.05441 16.9493 5.05441 15.3846C5.05441 13.8199 6.32059 12.5537 7.88529 12.5537C9.45 12.5537 10.7162 13.8199 10.7162 15.3846Z" fill="white"/>
<path d="M4.88971 22.0757C4.88971 23.0691 4.08162 23.8772 3.08824 23.8772C2.09485 23.8772 1.28676 23.0691 1.28676 22.0757C1.28676 21.0824 2.09485 20.2743 3.08824 20.2743C4.08162 20.2743 4.88971 21.0824 4.88971 22.0757Z" fill="white"/>
<path d="M51.3779 15.3846C51.3779 16.9493 50.1118 18.2154 48.5471 18.2154C46.9824 18.2154 45.7162 16.9493 45.7162 15.3846C45.7162 13.8199 46.9824 12.5537 48.5471 12.5537C50.1118 12.5537 51.3779 13.8199 51.3779 15.3846Z" fill="white"/>
<path d="M54.8162 22.0757C54.8162 23.0691 54.0081 23.8772 53.0147 23.8772C52.0213 23.8772 51.2132 23.0691 51.2132 22.0757C51.2132 21.0824 52.0213 20.2743 53.0147 20.2743C54.0081 20.2743 54.8162 21.0824 54.8162 22.0757Z" fill="white"/>
<path d="M2.57353 27.7375C2.57353 28.4478 1.99706 29.0243 1.28676 29.0243C0.576471 29.0243 0 28.4478 0 27.7375C0 27.0272 0.576471 26.4507 1.28676 26.4507C1.99706 26.4507 2.57353 27.0272 2.57353 27.7375Z" fill="white"/>
<path d="M56.1029 27.7375C56.1029 28.4478 55.5265 29.0243 54.8162 29.0243C54.1059 29.0243 53.5294 28.4478 53.5294 27.7375C53.5294 27.0272 54.1059 26.4507 54.8162 26.4507C55.5265 26.4507 56.1029 27.0272 56.1029 27.7375Z" fill="white"/>
<path d="M47.1368 63.5096C47.1368 60.6684 44.8309 58.3625 41.9897 58.3625C39.1485 58.3625 36.8426 60.6684 36.8426 63.5096C36.8426 66.3507 39.1485 68.6566 41.9897 68.6566C44.836 68.6566 47.1368 66.3559 47.1368 63.5096Z" fill="white"/>
<path d="M34.3926 60.6272C34.3926 58.3522 32.55 56.5096 30.275 56.5096C28 56.5096 26.1574 58.3522 26.1574 60.6272C26.1574 62.9022 28 64.7449 30.275 64.7449C32.55 64.7449 34.3926 62.9022 34.3926 60.6272Z" fill="white"/>
<path d="M58.0691 60.6272C58.0691 58.3522 56.2265 56.5096 53.9515 56.5096C51.6765 56.5096 49.8338 58.3522 49.8338 60.6272C49.8338 62.9022 51.6765 64.7449 53.9515 64.7449C56.2265 64.7449 58.0691 62.9022 58.0691 60.6272Z" fill="white"/>
<path d="M24.6132 54.3015C24.6132 52.7368 23.3471 51.4706 21.7824 51.4706C20.2176 51.4706 18.9515 52.7368 18.9515 54.3015C18.9515 55.8662 20.2176 57.1324 21.7824 57.1324C23.3471 57.1324 24.6132 55.8662 24.6132 54.3015Z" fill="white"/>
<path d="M18.7868 47.6103C18.7868 46.6169 17.9787 45.8088 16.9853 45.8088C15.9919 45.8088 15.1838 46.6169 15.1838 47.6103C15.1838 48.6037 15.9919 49.4118 16.9853 49.4118C17.9787 49.4118 18.7868 48.6037 18.7868 47.6103Z" fill="white"/>
<path d="M65.275 54.3015C65.275 52.7368 64.0088 51.4706 62.4441 51.4706C60.8794 51.4706 59.6132 52.7368 59.6132 54.3015C59.6132 55.8662 60.8794 57.1324 62.4441 57.1324C64.0088 57.1324 65.275 55.8662 65.275 54.3015Z" fill="white"/>
<path d="M68.7132 47.6103C68.7132 46.6169 67.9051 45.8088 66.9118 45.8088C65.9184 45.8088 65.1103 46.6169 65.1103 47.6103C65.1103 48.6037 65.9184 49.4118 66.9118 49.4118C67.9051 49.4118 68.7132 48.6037 68.7132 47.6103Z" fill="white"/>
<path d="M16.4706 41.9485C16.4706 41.2382 15.8941 40.6618 15.1838 40.6618C14.4735 40.6618 13.8971 41.2382 13.8971 41.9485C13.8971 42.6588 14.4735 43.2353 15.1838 43.2353C15.8941 43.2353 16.4706 42.6588 16.4706 41.9485Z" fill="white"/>
<path d="M70 41.9485C70 41.2382 69.4235 40.6618 68.7132 40.6618C68.0029 40.6618 67.4265 41.2382 67.4265 41.9485C67.4265 42.6588 68.0029 43.2353 68.7132 43.2353C69.4235 43.2353 70 42.6588 70 41.9485Z" fill="white"/>
<path d="M6.17647 36.7603C9.01765 36.7603 11.3235 39.0662 11.3235 41.9073C11.3235 44.7485 9.01765 47.0544 6.17647 47.0544C3.33529 47.0544 1.02941 44.7485 1.02941 41.9073C1.02941 39.0662 3.33529 36.7603 6.17647 36.7603Z" fill="white"/>
<path d="M9.05882 49.5044C11.3338 49.5044 13.1765 51.3471 13.1765 53.6221C13.1765 55.8971 11.3338 57.7397 9.05882 57.7397C6.78382 57.7397 4.94118 55.8971 4.94118 53.6221C4.94118 51.3471 6.78382 49.5044 9.05882 49.5044Z" fill="white"/>
<path d="M9.05882 25.8279C11.3338 25.8279 13.1765 27.6706 13.1765 29.9456C13.1765 32.2206 11.3338 34.0632 9.05882 34.0632C6.78382 34.0632 4.94118 32.2206 4.94118 29.9456C4.94118 27.6706 6.78382 25.8279 9.05882 25.8279Z" fill="white"/>
<path d="M15.3846 59.2838C16.9493 59.2838 18.2154 60.55 18.2154 62.1147C18.2154 63.6794 16.9493 64.9456 15.3846 64.9456C13.8199 64.9456 12.5537 63.6794 12.5537 62.1147C12.5537 60.55 13.8199 59.2838 15.3846 59.2838Z" fill="white"/>
<path d="M22.0757 65.1103C23.0691 65.1103 23.8772 65.9184 23.8772 66.9118C23.8772 67.9051 23.0691 68.7132 22.0757 68.7132C21.0824 68.7132 20.2743 67.9051 20.2743 66.9118C20.2743 65.9184 21.0824 65.1103 22.0757 65.1103Z" fill="white"/>
<path d="M15.3846 18.6221C16.9493 18.6221 18.2154 19.8882 18.2154 21.4529C18.2154 23.0176 16.9493 24.2838 15.3846 24.2838C13.8199 24.2838 12.5537 23.0176 12.5537 21.4529C12.5537 19.8882 13.8199 18.6221 15.3846 18.6221Z" fill="white"/>
<path d="M22.0757 15.1838C23.0691 15.1838 23.8772 15.9919 23.8772 16.9853C23.8772 17.9787 23.0691 18.7868 22.0757 18.7868C21.0824 18.7868 20.2743 17.9787 20.2743 16.9853C20.2743 15.9919 21.0824 15.1838 22.0757 15.1838Z" fill="white"/>
<path d="M27.7375 67.4265C28.4478 67.4265 29.0243 68.0029 29.0243 68.7132C29.0243 69.4235 28.4478 70 27.7375 70C27.0272 70 26.4507 69.4235 26.4507 68.7132C26.4507 68.0029 27.0272 67.4265 27.7375 67.4265Z" fill="white"/>
<path d="M27.7375 13.8971C28.4478 13.8971 29.0243 14.4735 29.0243 15.1838C29.0243 15.8941 28.4478 16.4706 27.7375 16.4706C27.0272 16.4706 26.4507 15.8941 26.4507 15.1838C26.4507 14.4735 27.0272 13.8971 27.7375 13.8971Z" fill="white"/>
<path d="M63.5096 22.8632C60.6684 22.8632 58.3625 25.1691 58.3625 28.0103C58.3625 30.8515 60.6684 33.1574 63.5096 33.1574C66.3507 33.1574 68.6566 30.8515 68.6566 28.0103C68.6566 25.164 66.3559 22.8632 63.5096 22.8632Z" fill="white"/>
<path d="M60.6272 35.6074C58.3522 35.6074 56.5096 37.45 56.5096 39.725C56.5096 42 58.3522 43.8426 60.6272 43.8426C62.9022 43.8426 64.7449 42 64.7449 39.725C64.7449 37.45 62.9022 35.6074 60.6272 35.6074Z" fill="white"/>
<path d="M60.6272 11.9309C58.3522 11.9309 56.5096 13.7735 56.5096 16.0485C56.5096 18.3235 58.3522 20.1662 60.6272 20.1662C62.9022 20.1662 64.7449 18.3235 64.7449 16.0485C64.7449 13.7735 62.9022 11.9309 60.6272 11.9309Z" fill="white"/>
<path d="M54.3015 45.3868C52.7368 45.3868 51.4706 46.6529 51.4706 48.2176C51.4706 49.7823 52.7368 51.0485 54.3015 51.0485C55.8662 51.0485 57.1324 49.7823 57.1324 48.2176C57.1324 46.6529 55.8662 45.3868 54.3015 45.3868Z" fill="white"/>
<path d="M47.6103 51.2132C46.6169 51.2132 45.8088 52.0213 45.8088 53.0147C45.8088 54.0081 46.6169 54.8162 47.6103 54.8162C48.6037 54.8162 49.4118 54.0081 49.4118 53.0147C49.4118 52.0213 48.6037 51.2132 47.6103 51.2132Z" fill="white"/>
<path d="M54.3015 4.725C52.7368 4.725 51.4706 5.99118 51.4706 7.55588C51.4706 9.12059 52.7368 10.3868 54.3015 10.3868C55.8662 10.3868 57.1324 9.12059 57.1324 7.55588C57.1324 5.99118 55.8662 4.725 54.3015 4.725Z" fill="white"/>
<path d="M47.6103 1.28676C46.6169 1.28676 45.8088 2.09485 45.8088 3.08824C45.8088 4.08162 46.6169 4.88971 47.6103 4.88971C48.6037 4.88971 49.4118 4.08162 49.4118 3.08824C49.4118 2.09485 48.6037 1.28676 47.6103 1.28676Z" fill="white"/>
<path d="M41.9485 53.5294C41.2382 53.5294 40.6618 54.1059 40.6618 54.8162C40.6618 55.5265 41.2382 56.1029 41.9485 56.1029C42.6588 56.1029 43.2353 55.5265 43.2353 54.8162C43.2353 54.1059 42.6588 53.5294 41.9485 53.5294Z" fill="white"/>
<path d="M41.9485 0C41.2382 0 40.6618 0.576471 40.6618 1.28676C40.6618 1.99706 41.2382 2.57353 41.9485 2.57353C42.6588 2.57353 43.2353 1.99706 43.2353 1.28676C43.2353 0.576471 42.6588 0 41.9485 0Z" fill="white"/>
</svg>
