<svg width="295" height="295" viewBox="0 0 295 295" fill="none" xmlns="http://www.w3.org/2000/svg">
<circle cx="147.5" cy="147.5" r="147.5" fill="#F5F5F5"/>
<line x1="104.972" y1="83.0826" x2="213.772" y2="145.416" stroke="black" stroke-width="1.5"/>
<line x1="104.227" y1="207.749" x2="213.027" y2="145.416" stroke="black" stroke-width="1.5"/>
<line x1="104.221" y1="166.953" x2="177.888" y2="123.886" stroke="black" stroke-width="1.5"/>
<line x1="104.211" y1="125.025" x2="141.611" y2="102.359" stroke="black" stroke-width="1.5"/>
<line x1="105.245" y1="125.284" x2="141.511" y2="186.484" stroke="black" stroke-width="1.5"/>
<line x1="141.511" y1="104.884" x2="177.778" y2="166.084" stroke="black" stroke-width="1.5"/>
<line x1="104.967" y1="125.013" x2="177.501" y2="165.813" stroke="black" stroke-width="1.5"/>
<line x1="104.951" y1="166.938" x2="141.218" y2="186.204" stroke="black" stroke-width="1.5"/>
<circle cx="104.6" cy="82.6" r="12.85" fill="#F7F7F7" stroke="black" stroke-width="1.5"/>
<circle cx="140.867" cy="101.867" r="12.85" fill="#F7F7F7" stroke="black" stroke-width="1.5"/>
<circle cx="104.6" cy="124.533" r="12.85" fill="#F7F7F7" stroke="black" stroke-width="1.5"/>
<circle cx="140.867" cy="144.933" r="12.85" fill="#F7F7F7" stroke="black" stroke-width="1.5"/>
<circle cx="177.133" cy="124.533" r="12.85" fill="#F7F7F7" stroke="black" stroke-width="1.5"/>
<circle cx="104.6" cy="166.467" r="12.85" fill="#F7F7F7" stroke="black" stroke-width="1.5"/>
<circle cx="140.867" cy="185.733" r="12.85" fill="#F7F7F7" stroke="black" stroke-width="1.5"/>
<circle cx="177.133" cy="166.467" r="12.85" fill="#F7F7F7" stroke="black" stroke-width="1.5"/>
<circle cx="213.4" cy="144.933" r="12.85" fill="#F7F7F7" stroke="black" stroke-width="1.5"/>
<circle cx="104.6" cy="208.4" r="12.85" fill="#F7F7F7" stroke="black" stroke-width="1.5"/>
<path d="M104.814 78.3846C105.464 78.3846 105.993 78.5363 106.4 78.8396C106.816 79.1343 107.137 79.5156 107.362 79.9836C107.596 80.443 107.752 80.95 107.83 81.5046C107.917 82.0593 107.96 82.5966 107.96 83.1166C107.96 83.6366 107.917 84.174 107.83 84.7286C107.752 85.2833 107.596 85.7946 107.362 86.2626C107.137 86.722 106.816 87.1033 106.4 87.4066C105.993 87.7013 105.464 87.8486 104.814 87.8486C104.164 87.8486 103.631 87.7013 103.215 87.4066C102.808 87.1033 102.487 86.722 102.253 86.2626C102.028 85.7946 101.872 85.2833 101.785 84.7286C101.707 84.174 101.668 83.6366 101.668 83.1166C101.668 82.5966 101.707 82.0593 101.785 81.5046C101.872 80.95 102.028 80.443 102.253 79.9836C102.487 79.5156 102.808 79.1343 103.215 78.8396C103.631 78.5363 104.164 78.3846 104.814 78.3846ZM104.814 86.6136C105.135 86.6136 105.404 86.5226 105.62 86.3406C105.837 86.15 106.006 85.8986 106.127 85.5866C106.257 85.266 106.348 84.8933 106.4 84.4686C106.452 84.044 106.478 83.5933 106.478 83.1166C106.478 82.64 106.452 82.1936 106.4 81.7776C106.348 81.353 106.257 80.9803 106.127 80.6596C106.006 80.339 105.837 80.0876 105.62 79.9056C105.404 79.715 105.135 79.6196 104.814 79.6196C104.485 79.6196 104.212 79.715 103.995 79.9056C103.787 80.0876 103.618 80.339 103.488 80.6596C103.367 80.9803 103.28 81.353 103.228 81.7776C103.176 82.1936 103.15 82.64 103.15 83.1166C103.15 83.5933 103.176 84.044 103.228 84.4686C103.28 84.8933 103.367 85.266 103.488 85.5866C103.618 85.8986 103.787 86.15 103.995 86.3406C104.212 86.5226 104.485 86.6136 104.814 86.6136Z" fill="black"/>
<path d="M104.814 162.251C105.464 162.251 105.993 162.403 106.4 162.706C106.816 163.001 107.137 163.382 107.362 163.85C107.596 164.31 107.752 164.817 107.83 165.371C107.917 165.926 107.96 166.463 107.96 166.983C107.96 167.503 107.917 168.041 107.83 168.595C107.752 169.15 107.596 169.661 107.362 170.129C107.137 170.589 106.816 170.97 106.4 171.273C105.993 171.568 105.464 171.715 104.814 171.715C104.164 171.715 103.631 171.568 103.215 171.273C102.808 170.97 102.487 170.589 102.253 170.129C102.028 169.661 101.872 169.15 101.785 168.595C101.707 168.041 101.668 167.503 101.668 166.983C101.668 166.463 101.707 165.926 101.785 165.371C101.872 164.817 102.028 164.31 102.253 163.85C102.487 163.382 102.808 163.001 103.215 162.706C103.631 162.403 104.164 162.251 104.814 162.251ZM104.814 170.48C105.135 170.48 105.404 170.389 105.62 170.207C105.837 170.017 106.006 169.765 106.127 169.453C106.257 169.133 106.348 168.76 106.4 168.335C106.452 167.911 106.478 167.46 106.478 166.983C106.478 166.507 106.452 166.06 106.4 165.644C106.348 165.22 106.257 164.847 106.127 164.526C106.006 164.206 105.837 163.954 105.62 163.772C105.404 163.582 105.135 163.486 104.814 163.486C104.485 163.486 104.212 163.582 103.995 163.772C103.787 163.954 103.618 164.206 103.488 164.526C103.367 164.847 103.28 165.22 103.228 165.644C103.176 166.06 103.15 166.507 103.15 166.983C103.15 167.46 103.176 167.911 103.228 168.335C103.28 168.76 103.367 169.133 103.488 169.453C103.618 169.765 103.787 170.017 103.995 170.207C104.212 170.389 104.485 170.48 104.814 170.48Z" fill="black"/>
<path d="M175.332 162.433H180.038V163.759H176.437L175.969 166.073L175.995 166.099C176.195 165.874 176.446 165.705 176.749 165.592C177.061 165.471 177.369 165.41 177.672 165.41C178.123 165.41 178.526 165.488 178.881 165.644C179.237 165.792 179.536 166.004 179.778 166.281C180.021 166.55 180.203 166.871 180.324 167.243C180.454 167.616 180.519 168.019 180.519 168.452C180.519 168.816 180.459 169.193 180.337 169.583C180.225 169.965 180.038 170.316 179.778 170.636C179.527 170.948 179.202 171.208 178.803 171.416C178.405 171.616 177.928 171.715 177.373 171.715C176.931 171.715 176.52 171.655 176.138 171.533C175.766 171.421 175.436 171.247 175.15 171.013C174.864 170.779 174.635 170.493 174.461 170.155C174.297 169.809 174.206 169.406 174.188 168.946H175.67C175.714 169.44 175.883 169.822 176.177 170.09C176.472 170.35 176.862 170.48 177.347 170.48C177.659 170.48 177.924 170.428 178.14 170.324C178.357 170.22 178.53 170.077 178.66 169.895C178.799 169.713 178.894 169.501 178.946 169.258C179.007 169.016 179.037 168.756 179.037 168.478C179.037 168.227 179.003 167.989 178.933 167.763C178.864 167.529 178.76 167.326 178.621 167.152C178.483 166.979 178.301 166.84 178.075 166.736C177.859 166.632 177.603 166.58 177.308 166.58C176.996 166.58 176.702 166.641 176.424 166.762C176.156 166.875 175.961 167.092 175.839 167.412H174.357L175.332 162.433Z" fill="black"/>
<path d="M141.081 140.718C141.731 140.718 142.259 140.87 142.667 141.173C143.083 141.468 143.403 141.849 143.629 142.317C143.863 142.776 144.019 143.283 144.097 143.838C144.183 144.393 144.227 144.93 144.227 145.45C144.227 145.97 144.183 146.507 144.097 147.062C144.019 147.617 143.863 148.128 143.629 148.596C143.403 149.055 143.083 149.437 142.667 149.74C142.259 150.035 141.731 150.182 141.081 150.182C140.431 150.182 139.898 150.035 139.482 149.74C139.074 149.437 138.754 149.055 138.52 148.596C138.294 148.128 138.138 147.617 138.052 147.062C137.974 146.507 137.935 145.97 137.935 145.45C137.935 144.93 137.974 144.393 138.052 143.838C138.138 143.283 138.294 142.776 138.52 142.317C138.754 141.849 139.074 141.468 139.482 141.173C139.898 140.87 140.431 140.718 141.081 140.718ZM141.081 148.947C141.401 148.947 141.67 148.856 141.887 148.674C142.103 148.483 142.272 148.232 142.394 147.92C142.524 147.599 142.615 147.227 142.667 146.802C142.719 146.377 142.745 145.927 142.745 145.45C142.745 144.973 142.719 144.527 142.667 144.111C142.615 143.686 142.524 143.314 142.394 142.993C142.272 142.672 142.103 142.421 141.887 142.239C141.67 142.048 141.401 141.953 141.081 141.953C140.751 141.953 140.478 142.048 140.262 142.239C140.054 142.421 139.885 142.672 139.755 142.993C139.633 143.314 139.547 143.686 139.495 144.111C139.443 144.527 139.417 144.973 139.417 145.45C139.417 145.927 139.443 146.377 139.495 146.802C139.547 147.227 139.633 147.599 139.755 147.92C139.885 148.232 140.054 148.483 140.262 148.674C140.478 148.856 140.751 148.947 141.081 148.947Z" fill="black"/>
<path d="M213.614 140.718C214.264 140.718 214.793 140.87 215.2 141.173C215.616 141.468 215.937 141.849 216.162 142.317C216.396 142.776 216.552 143.283 216.63 143.838C216.717 144.393 216.76 144.93 216.76 145.45C216.76 145.97 216.717 146.507 216.63 147.062C216.552 147.617 216.396 148.128 216.162 148.596C215.937 149.055 215.616 149.437 215.2 149.74C214.793 150.035 214.264 150.182 213.614 150.182C212.964 150.182 212.431 150.035 212.015 149.74C211.608 149.437 211.287 149.055 211.053 148.596C210.828 148.128 210.672 147.617 210.585 147.062C210.507 146.507 210.468 145.97 210.468 145.45C210.468 144.93 210.507 144.393 210.585 143.838C210.672 143.283 210.828 142.776 211.053 142.317C211.287 141.849 211.608 141.468 212.015 141.173C212.431 140.87 212.964 140.718 213.614 140.718ZM213.614 148.947C213.935 148.947 214.203 148.856 214.42 148.674C214.637 148.483 214.806 148.232 214.927 147.92C215.057 147.599 215.148 147.227 215.2 146.802C215.252 146.377 215.278 145.927 215.278 145.45C215.278 144.973 215.252 144.527 215.2 144.111C215.148 143.686 215.057 143.314 214.927 142.993C214.806 142.672 214.637 142.421 214.42 142.239C214.203 142.048 213.935 141.953 213.614 141.953C213.285 141.953 213.012 142.048 212.795 142.239C212.587 142.421 212.418 142.672 212.288 142.993C212.167 143.314 212.08 143.686 212.028 144.111C211.976 144.527 211.95 144.973 211.95 145.45C211.95 145.927 211.976 146.377 212.028 146.802C212.08 147.227 212.167 147.599 212.288 147.92C212.418 148.232 212.587 148.483 212.795 148.674C213.012 148.856 213.285 148.947 213.614 148.947Z" fill="black"/>
<path d="M141.081 181.518C141.731 181.518 142.259 181.67 142.667 181.973C143.083 182.268 143.403 182.649 143.629 183.117C143.863 183.576 144.019 184.083 144.097 184.638C144.183 185.193 144.227 185.73 144.227 186.25C144.227 186.77 144.183 187.307 144.097 187.862C144.019 188.417 143.863 188.928 143.629 189.396C143.403 189.855 143.083 190.237 142.667 190.54C142.259 190.835 141.731 190.982 141.081 190.982C140.431 190.982 139.898 190.835 139.482 190.54C139.074 190.237 138.754 189.855 138.52 189.396C138.294 188.928 138.138 188.417 138.052 187.862C137.974 187.307 137.935 186.77 137.935 186.25C137.935 185.73 137.974 185.193 138.052 184.638C138.138 184.083 138.294 183.576 138.52 183.117C138.754 182.649 139.074 182.268 139.482 181.973C139.898 181.67 140.431 181.518 141.081 181.518ZM141.081 189.747C141.401 189.747 141.67 189.656 141.887 189.474C142.103 189.283 142.272 189.032 142.394 188.72C142.524 188.399 142.615 188.027 142.667 187.602C142.719 187.177 142.745 186.727 142.745 186.25C142.745 185.773 142.719 185.327 142.667 184.911C142.615 184.486 142.524 184.114 142.394 183.793C142.272 183.472 142.103 183.221 141.887 183.039C141.67 182.848 141.401 182.753 141.081 182.753C140.751 182.753 140.478 182.848 140.262 183.039C140.054 183.221 139.885 183.472 139.755 183.793C139.633 184.114 139.547 184.486 139.495 184.911C139.443 185.327 139.417 185.773 139.417 186.25C139.417 186.727 139.443 187.177 139.495 187.602C139.547 188.027 139.633 188.399 139.755 188.72C139.885 189.032 140.054 189.283 140.262 189.474C140.478 189.656 140.751 189.747 141.081 189.747Z" fill="black"/>
<path d="M144.188 106.933H137.974C137.982 106.179 138.164 105.521 138.52 104.957C138.875 104.394 139.36 103.904 139.976 103.488C140.27 103.272 140.578 103.064 140.899 102.864C141.219 102.656 141.514 102.435 141.783 102.201C142.051 101.967 142.272 101.716 142.446 101.447C142.619 101.17 142.71 100.854 142.719 100.498C142.719 100.334 142.697 100.16 142.654 99.9783C142.619 99.7877 142.545 99.6143 142.433 99.4583C142.32 99.2937 142.164 99.1593 141.965 99.0553C141.765 98.9427 141.505 98.8863 141.185 98.8863C140.89 98.8863 140.643 98.947 140.444 99.0683C140.253 99.181 140.097 99.3413 139.976 99.5493C139.863 99.7487 139.776 99.987 139.716 100.264C139.664 100.542 139.633 100.841 139.625 101.161H138.143C138.143 100.659 138.208 100.195 138.338 99.7703C138.476 99.337 138.68 98.9643 138.949 98.6523C139.217 98.3403 139.542 98.0977 139.924 97.9243C140.314 97.7423 140.764 97.6513 141.276 97.6513C141.83 97.6513 142.294 97.7423 142.667 97.9243C143.039 98.1063 143.338 98.336 143.564 98.6133C143.798 98.8907 143.962 99.194 144.058 99.5233C144.153 99.844 144.201 100.152 144.201 100.446C144.201 100.81 144.144 101.14 144.032 101.434C143.919 101.729 143.767 102.002 143.577 102.253C143.386 102.496 143.169 102.721 142.927 102.929C142.684 103.137 142.433 103.332 142.173 103.514C141.913 103.696 141.653 103.87 141.393 104.034C141.133 104.199 140.89 104.364 140.665 104.528C140.448 104.693 140.257 104.866 140.093 105.048C139.928 105.222 139.815 105.408 139.755 105.607H144.188V106.933Z" fill="black"/>
<path d="M174.422 122.008C174.734 122.008 175.038 121.982 175.332 121.93C175.627 121.878 175.891 121.791 176.125 121.67C176.368 121.549 176.572 121.393 176.736 121.202C176.91 121.011 177.022 120.777 177.074 120.5H178.283V129.6H176.658V123.178H174.422V122.008Z" fill="black"/>
<path d="M102.799 204.367H107.505V205.693H103.904L103.436 208.007L103.462 208.033C103.662 207.807 103.913 207.638 104.216 207.526C104.528 207.404 104.836 207.344 105.139 207.344C105.59 207.344 105.993 207.422 106.348 207.578C106.704 207.725 107.003 207.937 107.245 208.215C107.488 208.483 107.67 208.804 107.791 209.177C107.921 209.549 107.986 209.952 107.986 210.386C107.986 210.75 107.926 211.127 107.804 211.517C107.692 211.898 107.505 212.249 107.245 212.57C106.994 212.882 106.669 213.142 106.27 213.35C105.872 213.549 105.395 213.649 104.84 213.649C104.398 213.649 103.987 213.588 103.605 213.467C103.233 213.354 102.903 213.181 102.617 212.947C102.331 212.713 102.102 212.427 101.928 212.089C101.764 211.742 101.673 211.339 101.655 210.88H103.137C103.181 211.374 103.35 211.755 103.644 212.024C103.939 212.284 104.329 212.414 104.814 212.414C105.126 212.414 105.391 212.362 105.607 212.258C105.824 212.154 105.997 212.011 106.127 211.829C106.266 211.647 106.361 211.434 106.413 211.192C106.474 210.949 106.504 210.689 106.504 210.412C106.504 210.16 106.47 209.922 106.4 209.697C106.331 209.463 106.227 209.259 106.088 209.086C105.95 208.912 105.768 208.774 105.542 208.67C105.326 208.566 105.07 208.514 104.775 208.514C104.463 208.514 104.169 208.574 103.891 208.696C103.623 208.808 103.428 209.025 103.306 209.346H101.824L102.799 204.367Z" fill="black"/>
<path d="M101.889 122.008C102.201 122.008 102.505 121.982 102.799 121.93C103.094 121.878 103.358 121.791 103.592 121.67C103.835 121.549 104.039 121.393 104.203 121.202C104.377 121.011 104.489 120.777 104.541 120.5H105.75V129.6H104.125V123.178H101.889V122.008Z" fill="black"/>
</svg>
