<svg width="295" height="295" viewBox="0 0 295 295" fill="none" xmlns="http://www.w3.org/2000/svg">
<circle cx="147.5" cy="147.5" r="147.5" fill="#F5F5F5"/>
<rect x="140.75" y="91.75" width="73.5" height="105.808" rx="5.25" stroke="black" stroke-width="1.5"/>
<rect x="147.673" y="98.6731" width="59.6538" height="38.8846" rx="2.25" stroke="black" stroke-width="1.5"/>
<rect x="80.75" y="126.365" width="53.8846" height="71.1923" rx="5.25" stroke="black" stroke-width="1.5"/>
<line x1="140.75" y1="145.635" x2="206.173" y2="145.635" stroke="black" stroke-width="1.5" stroke-linecap="round"/>
<line x1="155.75" y1="129.481" x2="161.173" y2="129.481" stroke="black" stroke-width="1.5" stroke-linecap="round"/>
<line x1="164.98" y1="129.481" x2="170.404" y2="129.481" stroke="black" stroke-width="1.5" stroke-linecap="round"/>
<line x1="174.212" y1="129.481" x2="179.635" y2="129.481" stroke="black" stroke-width="1.5" stroke-linecap="round"/>
<line x1="183.442" y1="129.481" x2="188.865" y2="129.481" stroke="black" stroke-width="1.5" stroke-linecap="round"/>
<line x1="192.673" y1="129.481" x2="198.096" y2="129.481" stroke="black" stroke-width="1.5" stroke-linecap="round"/>
<line x1="155.75" y1="126.019" x2="161.173" y2="126.019" stroke="black" stroke-width="1.5" stroke-linecap="round"/>
<line x1="164.98" y1="126.019" x2="170.404" y2="126.019" stroke="black" stroke-width="1.5" stroke-linecap="round"/>
<line x1="174.212" y1="126.019" x2="179.635" y2="126.019" stroke="black" stroke-width="1.5" stroke-linecap="round"/>
<line x1="183.442" y1="126.019" x2="188.865" y2="126.019" stroke="black" stroke-width="1.5" stroke-linecap="round"/>
<line x1="192.673" y1="126.019" x2="198.096" y2="126.019" stroke="black" stroke-width="1.5" stroke-linecap="round"/>
<line x1="155.75" y1="122.558" x2="161.173" y2="122.558" stroke="black" stroke-width="1.5" stroke-linecap="round"/>
<line x1="164.98" y1="122.558" x2="170.404" y2="122.558" stroke="black" stroke-width="1.5" stroke-linecap="round"/>
<line x1="164.98" y1="119.096" x2="170.404" y2="119.096" stroke="black" stroke-width="1.5" stroke-linecap="round"/>
<line x1="164.98" y1="115.635" x2="170.404" y2="115.635" stroke="black" stroke-width="1.5" stroke-linecap="round"/>
<line x1="174.212" y1="122.558" x2="179.635" y2="122.558" stroke="black" stroke-width="1.5" stroke-linecap="round"/>
<line x1="174.212" y1="119.096" x2="179.635" y2="119.096" stroke="black" stroke-width="1.5" stroke-linecap="round"/>
<line x1="174.212" y1="115.635" x2="179.635" y2="115.635" stroke="black" stroke-width="1.5" stroke-linecap="round"/>
<line x1="174.212" y1="112.173" x2="179.635" y2="112.173" stroke="black" stroke-width="1.5" stroke-linecap="round"/>
<line x1="174.212" y1="108.712" x2="179.635" y2="108.712" stroke="black" stroke-width="1.5" stroke-linecap="round"/>
<line x1="192.673" y1="119.096" x2="198.096" y2="119.096" stroke="black" stroke-width="1.5" stroke-linecap="round"/>
<line x1="192.673" y1="122.558" x2="198.096" y2="122.558" stroke="black" stroke-width="1.5" stroke-linecap="round"/>
<line x1="193.827" y1="202.173" x2="207.327" y2="202.173" stroke="black" stroke-width="1.5" stroke-linecap="round"/>
<line x1="87.6729" y1="202.173" x2="101.173" y2="202.173" stroke="black" stroke-width="1.5" stroke-linecap="round"/>
<line x1="87.6729" y1="145.635" x2="126.557" y2="145.635" stroke="black" stroke-width="1.5" stroke-linecap="round"/>
<line x1="87.6729" y1="145.635" x2="133.481" y2="145.635" stroke="black" stroke-width="1.5" stroke-linecap="round"/>
<circle cx="88.0767" cy="152.154" r="1.15385" fill="black"/>
<circle cx="92.6919" cy="152.154" r="1.15385" fill="black"/>
<circle cx="97.3081" cy="152.154" r="1.15385" fill="black"/>
<circle cx="101.923" cy="152.154" r="1.15385" fill="black"/>
</svg>
