<svg width="97" height="27" viewBox="0 0 97 27" fill="none" xmlns="http://www.w3.org/2000/svg">
<path d="M0.415 26H3.565V0.974999H0.415V26ZM10.7239 7.905H7.88887V26H10.7239V14.87C10.7239 11.895 12.8239 9.865 15.6939 9.865C18.2489 9.865 19.7889 11.195 19.7889 13.54V26H22.6239V13.295C22.6239 9.55 20.3139 7.485 16.5339 7.485C13.9089 7.485 12.0889 8.57 10.7939 10.285H10.7239V7.905ZM40.5901 26.175C41.3251 26.175 41.7801 26.035 42.1301 25.895V23.83H42.0251C40.4501 24.18 40.1001 23.375 40.1001 21.905V13.295C40.1001 8.99 37.2651 7.555 33.4151 7.555C28.6201 7.555 26.3101 10.18 26.2051 13.68H28.9351C29.0401 10.95 30.5101 9.69 33.4501 9.69C36.0401 9.69 37.5101 10.845 37.5101 12.875C37.5101 14.835 35.7251 15.08 33.1701 15.465C28.6551 16.165 25.2951 17.04 25.2951 21.31C25.2951 24.74 27.9901 26.35 31.4201 26.35C34.5001 26.35 36.3551 24.88 37.4401 23.48H37.4751C37.7551 25.335 38.7351 26.175 40.5901 26.175ZM32.0501 24.18C30.1951 24.18 28.3051 23.655 28.3051 21.24C28.3051 18.58 30.5801 18.09 33.4151 17.565C34.9551 17.285 36.6001 16.83 37.5451 16.235V19.315C37.5451 21.415 35.8301 24.18 32.0501 24.18ZM47.0569 7.905H44.2219V26H47.0569V14.87C47.0569 11.895 49.1569 9.865 52.0269 9.865C54.5819 9.865 56.1219 11.195 56.1219 13.54V26H58.9569V13.295C58.9569 9.55 56.6469 7.485 52.8669 7.485C50.2419 7.485 48.4219 8.57 47.1269 10.285H47.0569V7.905ZM65.5481 7.905H62.7131V26H65.5481V14.87C65.5481 11.895 67.6481 9.865 70.5181 9.865C73.0731 9.865 74.6131 11.195 74.6131 13.54V26H77.4481V13.295C77.4481 9.55 75.1381 7.485 71.3581 7.485C68.7331 7.485 66.9131 8.57 65.6181 10.285H65.5481V7.905ZM95.4143 26.175C96.1493 26.175 96.6043 26.035 96.9543 25.895V23.83H96.8493C95.2743 24.18 94.9243 23.375 94.9243 21.905V13.295C94.9243 8.99 92.0893 7.555 88.2393 7.555C83.4443 7.555 81.1343 10.18 81.0293 13.68H83.7593C83.8643 10.95 85.3343 9.69 88.2743 9.69C90.8643 9.69 92.3343 10.845 92.3343 12.875C92.3343 14.835 90.5493 15.08 87.9943 15.465C83.4793 16.165 80.1193 17.04 80.1193 21.31C80.1193 24.74 82.8143 26.35 86.2443 26.35C89.3243 26.35 91.1793 24.88 92.2643 23.48H92.2993C92.5793 25.335 93.5593 26.175 95.4143 26.175ZM86.8743 24.18C85.0193 24.18 83.1293 23.655 83.1293 21.24C83.1293 18.58 85.4043 18.09 88.2393 17.565C89.7793 17.285 91.4243 16.83 92.3693 16.235V19.315C92.3693 21.415 90.6543 24.18 86.8743 24.18Z" fill="white"/>
</svg>
