<svg width="45" height="45" viewBox="0 0 45 45" fill="none" xmlns="http://www.w3.org/2000/svg">
<circle cx="22.5" cy="22.5" r="22.5" fill="#2027CE"/>
<path d="M15.706 16.68C16.674 16.68 17.466 15.888 17.466 14.942C17.466 13.996 16.674 13.182 15.706 13.182C14.76 13.182 13.968 13.996 13.968 14.942C13.968 15.888 14.76 16.68 15.706 16.68ZM17.136 29V18H14.298V29H17.136ZM25.8495 17.692C24.3535 17.692 23.2535 18.198 22.5715 19.232V18H19.7335V29H22.5715V23.06C22.5715 21.234 23.5175 20.332 24.9915 20.332C26.3115 20.332 27.1695 21.124 27.1695 22.598V29H30.0075V22.246C30.0075 20.816 29.6115 19.716 28.8195 18.902C28.0495 18.088 27.0595 17.692 25.8495 17.692Z" fill="white"/>
</svg>
