<svg width="295" height="295" viewBox="0 0 295 295" fill="none" xmlns="http://www.w3.org/2000/svg">
<circle cx="147.5" cy="147.5" r="147.5" fill="#F5F5F5"/>
<circle cx="89.7689" cy="92.3245" r="5.57451" fill="#F7F7F7" stroke="black" stroke-width="1.5"/>
<line x1="87.0342" y1="131.888" x2="87.0342" y2="141.672" stroke="black" stroke-width="1.5" stroke-linecap="round"/>
<path d="M89.1055 131.024C89.1055 131.024 87.9771 131.024 82.3349 131.024C76.6927 131.024 78.7002 125.946 78.7002 125.946L86.2844 106.763C87.9771 102.927 83.0293 100.67 81.2064 104.619C77.8211 111.954 76.6927 114.775 75 118.725" stroke="black" stroke-width="1.5" stroke-linecap="round"/>
<path d="M88.5409 131.024C88.5409 131.024 91.9263 131.024 97.5685 131.024C103.211 131.024 101.203 125.946 101.203 125.946L93.6189 106.763C91.9263 102.927 96.874 100.67 98.6969 104.619C102.082 111.954 103.211 114.775 104.903 118.725" stroke="black" stroke-width="1.5" stroke-linecap="round"/>
<line x1="92.6768" y1="131.888" x2="92.6768" y2="141.672" stroke="black" stroke-width="1.5" stroke-linecap="round"/>
<circle cx="89.7689" cy="158.903" r="5.57451" fill="#F7F7F7" stroke="black" stroke-width="1.5"/>
<line x1="87.0342" y1="198.466" x2="87.0342" y2="208.25" stroke="black" stroke-width="1.5" stroke-linecap="round"/>
<path d="M89.1055 197.602C89.1055 197.602 87.9771 197.602 82.3349 197.602C76.6927 197.602 78.7002 192.524 78.7002 192.524L86.2844 173.341C87.9771 169.505 83.0293 167.248 81.2064 171.197C77.8211 178.532 76.6927 181.353 75 185.303" stroke="black" stroke-width="1.5" stroke-linecap="round"/>
<path d="M88.5409 197.602C88.5409 197.602 91.9263 197.602 97.5685 197.602C103.211 197.602 101.203 192.524 101.203 192.524L93.6189 173.341C91.9263 169.505 96.874 167.248 98.6969 171.197C102.082 178.532 103.211 181.353 104.903 185.303" stroke="black" stroke-width="1.5" stroke-linecap="round"/>
<line x1="92.6768" y1="198.466" x2="92.6768" y2="208.25" stroke="black" stroke-width="1.5" stroke-linecap="round"/>
<circle cx="128.137" cy="92.3245" r="5.57451" fill="#F7F7F7" stroke="black" stroke-width="1.5"/>
<line x1="125.402" y1="131.888" x2="125.402" y2="141.672" stroke="black" stroke-width="1.5" stroke-linecap="round"/>
<path d="M127.474 131.024C127.474 131.024 126.345 131.024 120.703 131.024C115.061 131.024 117.068 125.946 117.068 125.946L124.653 106.763C126.345 102.927 121.397 100.67 119.575 104.619C116.189 111.954 115.061 114.775 113.368 118.725" stroke="black" stroke-width="1.5" stroke-linecap="round"/>
<path d="M126.909 131.024C126.909 131.024 130.294 131.024 135.937 131.024C141.579 131.024 139.571 125.946 139.571 125.946L131.987 106.763C130.294 102.927 135.242 100.67 137.065 104.619C140.45 111.954 141.579 114.775 143.271 118.725" stroke="black" stroke-width="1.5" stroke-linecap="round"/>
<line x1="131.045" y1="131.888" x2="131.045" y2="141.672" stroke="black" stroke-width="1.5" stroke-linecap="round"/>
<circle cx="128.137" cy="158.903" r="5.57451" fill="#F7F7F7" stroke="black" stroke-width="1.5"/>
<line x1="125.402" y1="198.466" x2="125.402" y2="208.25" stroke="black" stroke-width="1.5" stroke-linecap="round"/>
<path d="M127.474 197.602C127.474 197.602 126.345 197.602 120.703 197.602C115.061 197.602 117.068 192.524 117.068 192.524L124.653 173.341C126.345 169.505 121.397 167.248 119.575 171.197C116.189 178.532 115.061 181.353 113.368 185.303" stroke="black" stroke-width="1.5" stroke-linecap="round"/>
<path d="M126.909 197.602C126.909 197.602 130.294 197.602 135.937 197.602C141.579 197.602 139.571 192.524 139.571 192.524L131.987 173.341C130.294 169.505 135.242 167.248 137.065 171.197C140.45 178.532 141.579 181.353 143.271 185.303" stroke="black" stroke-width="1.5" stroke-linecap="round"/>
<line x1="131.045" y1="198.466" x2="131.045" y2="208.25" stroke="black" stroke-width="1.5" stroke-linecap="round"/>
<circle cx="166.503" cy="92.3245" r="5.57451" fill="#F7F7F7" stroke="black" stroke-width="1.5"/>
<line x1="163.769" y1="131.888" x2="163.769" y2="141.672" stroke="black" stroke-width="1.5" stroke-linecap="round"/>
<path d="M165.84 131.024C165.84 131.024 164.711 131.024 159.069 131.024C153.427 131.024 155.435 125.946 155.435 125.946L163.019 106.763C164.711 102.927 159.764 100.67 157.941 104.619C154.555 111.954 153.427 114.775 151.734 118.725" stroke="black" stroke-width="1.5" stroke-linecap="round"/>
<path d="M165.275 131.024C165.275 131.024 168.661 131.024 174.303 131.024C179.945 131.024 177.937 125.946 177.937 125.946L170.353 106.763C168.661 102.927 173.608 100.67 175.431 104.619C178.817 111.954 179.945 114.775 181.638 118.725" stroke="black" stroke-width="1.5" stroke-linecap="round"/>
<line x1="169.411" y1="131.888" x2="169.411" y2="141.672" stroke="black" stroke-width="1.5" stroke-linecap="round"/>
<circle cx="166.503" cy="158.903" r="5.57451" fill="#F7F7F7" stroke="black" stroke-width="1.5"/>
<line x1="163.769" y1="198.466" x2="163.769" y2="208.25" stroke="black" stroke-width="1.5" stroke-linecap="round"/>
<path d="M165.84 197.602C165.84 197.602 164.711 197.602 159.069 197.602C153.427 197.602 155.435 192.524 155.435 192.524L163.019 173.341C164.711 169.505 159.764 167.248 157.941 171.197C154.555 178.532 153.427 181.353 151.734 185.303" stroke="black" stroke-width="1.5" stroke-linecap="round"/>
<path d="M165.275 197.602C165.275 197.602 168.661 197.602 174.303 197.602C179.945 197.602 177.937 192.524 177.937 192.524L170.353 173.341C168.661 169.505 173.608 167.248 175.431 171.197C178.817 178.532 179.945 181.353 181.638 185.303" stroke="black" stroke-width="1.5" stroke-linecap="round"/>
<line x1="169.411" y1="198.466" x2="169.411" y2="208.25" stroke="black" stroke-width="1.5" stroke-linecap="round"/>
<circle cx="204.87" cy="92.3245" r="5.57451" fill="#F7F7F7" stroke="black" stroke-width="1.5"/>
<line x1="202.136" y1="131.888" x2="202.136" y2="141.672" stroke="black" stroke-width="1.5" stroke-linecap="round"/>
<path d="M204.207 131.024C204.207 131.024 203.079 131.024 197.436 131.024C191.794 131.024 193.802 125.946 193.802 125.946L201.386 106.763C203.079 102.927 198.131 100.67 196.308 104.619C192.923 111.954 191.794 114.775 190.102 118.725" stroke="black" stroke-width="1.5" stroke-linecap="round"/>
<path d="M203.642 131.024C203.642 131.024 207.028 131.024 212.67 131.024C218.312 131.024 216.305 125.946 216.305 125.946L208.72 106.763C207.028 102.927 211.976 100.67 213.798 104.619C217.184 111.954 218.312 114.775 220.005 118.725" stroke="black" stroke-width="1.5" stroke-linecap="round"/>
<line x1="207.778" y1="131.888" x2="207.778" y2="141.672" stroke="black" stroke-width="1.5" stroke-linecap="round"/>
<circle cx="204.87" cy="158.903" r="5.57451" fill="#F7F7F7" stroke="black" stroke-width="1.5"/>
<line x1="202.136" y1="198.466" x2="202.136" y2="208.25" stroke="black" stroke-width="1.5" stroke-linecap="round"/>
<path d="M204.207 197.602C204.207 197.602 203.079 197.602 197.436 197.602C191.794 197.602 193.802 192.524 193.802 192.524L201.386 173.341C203.079 169.505 198.131 167.248 196.308 171.197C192.923 178.532 191.794 181.353 190.102 185.303" stroke="black" stroke-width="1.5" stroke-linecap="round"/>
<path d="M203.642 197.602C203.642 197.602 207.028 197.602 212.67 197.602C218.312 197.602 216.305 192.524 216.305 192.524L208.72 173.341C207.028 169.505 211.976 167.248 213.798 171.197C217.184 178.532 218.312 181.353 220.005 185.303" stroke="black" stroke-width="1.5" stroke-linecap="round"/>
<line x1="207.778" y1="198.466" x2="207.778" y2="208.25" stroke="black" stroke-width="1.5" stroke-linecap="round"/>
</svg>
